<svg xmlns="http://www.w3.org/2000/svg" width="192" height="144" viewBox="0 0 192 144"><defs><linearGradient id="bg" x1="0" y1="0" x2="1" y2="1"><stop stop-color="#4d6888"/><stop offset="1" stop-color="#142b3d"/></linearGradient><radialGradient id="sun"><stop stop-color="#d6bd85" stop-opacity=".95"/><stop offset="1" stop-color="#d6bd85" stop-opacity="0"/></radialGradient></defs><rect width="192" height="144" rx="16" fill="url(#bg)"/><circle cx="145" cy="37" r="38" fill="url(#sun)"/><path d="M0 118q25-13 50 0t50 0t50 0t50 0v26H0z" fill="#14384c" opacity=".8"/><path d="M58 121V61l38-20 38 20v60z" fill="#aa8152" stroke="#f4dcb0" stroke-width="4"/><path d="M50 62 96 34l46 28M87 42V25h18v18" fill="none" stroke="#f4dcb0" stroke-width="5"/><path d="M88 84h16v37H88zM69 71h10v13H69zM113 71h10v13h-10z" fill="#74c9d0"/></svg>