<svg xmlns="http://www.w3.org/2000/svg" width="192" height="144" viewBox="0 0 192 144"><defs><linearGradient id="bg" x1="0" y1="0" x2="1" y2="1"><stop stop-color="#506d83"/><stop offset="1" stop-color="#142b3d"/></linearGradient><radialGradient id="sun"><stop stop-color="#e6b967" stop-opacity=".95"/><stop offset="1" stop-color="#e6b967" stop-opacity="0"/></radialGradient></defs><rect width="192" height="144" rx="16" fill="url(#bg)"/><circle cx="145" cy="37" r="38" fill="url(#sun)"/><path d="M0 118q25-13 50 0t50 0t50 0t50 0v26H0z" fill="#14384c" opacity=".8"/><path d="M29 104h134l-21 24H51z" fill="#5d554c" stroke="#f0d5a7" stroke-width="4"/><path d="M47 69h95v34H47z" fill="#b14f42" stroke="#f5d5a8" stroke-width="4"/><path d="M61 69V54h19v15M94 69V48h17v21M124 69V57h11v12" fill="#e8d6b4" stroke="#fff0d2" stroke-width="4"/><path d="M27 132q18-7 36 0t36 0t36 0" fill="none" stroke="#72d7df" stroke-width="5"/></svg>